<svg xmlns="http://www.w3.org/2000/svg" viewBox="0 0 24 24" fill="none" stroke="currentColor" stroke-width="2" stroke-linecap="round" stroke-linejoin="round">
  <path d="M21.198 2.433a2.242 2.242 0 0 0-1.022.215l-16.54 6.618a.8.8 0 0 0-.3.248.8.8 0 0 0-.084.32.969.969 0 0 0 .361.673c.161.117.362.193.57.216l3.982.6 9.452-5.945c.19-.12.412-.08.544.2.132.1.074.308-.055.408l-7.644 6.91 1.158 4.318c.013.05.028.101.044.151.103.36.166.575.436.575a.73.73 0 0 0 .43-.176l1.9-1.93 3.689 2.818c.404.307.831.498 1.248.498.576 0 1.1-.324 1.278-.915l2.314-9.284c.206-.831-.245-1.451-.994-1.675zM6.5 13.5l3.751 2.558 3.515-2.339L6.5 13.5z"/>
</svg> 